HIERARCHY
ROOT Hips
{
	OFFSET 0.00000 0.00000 0.00000
	CHANNELS 6 Xposition Yposition Zposition Yrotation Zrotation Xrotation 
	JOINT Lumbar
	{
		OFFSET 0 0 0
		CHANNELS 3 Zrotation Xrotation Yrotation
		JOINT Neck
		{
			OFFSET 0.00 0.2701 0.00
			CHANNELS 3 Zrotation Xrotation Yrotation
			End Site
			{
				OFFSET 0.00 0.1379 0.00
			}
		}
		JOINT RightShoulder
		{
			OFFSET 0.0119 0.2289 0.1181
			CHANNELS 3 Zrotation Xrotation Yrotation
			JOINT RightElbow
			{
				OFFSET 0.00 -0.1475 0.00
				CHANNELS 2 Zrotation Yrotation
				JOINT RightWrist
				{
					OFFSET 0.00 -0.1605 0.00
					CHANNELS 2 Zrotation Xrotation
					End Site
					{
						OFFSET 0.0040 -0.1068 0.0006
					}
				}
			}
		}
		JOINT LeftShoulder
		{
			OFFSET 0.0119 0.2289 -0.1181
			CHANNELS 3 Zrotation Xrotation Yrotation
			JOINT LeftElbow
			{
				OFFSET 0.00 -0.1475 0.00
				CHANNELS 2 Zrotation Yrotation
				JOINT LeftWrist
				{
					OFFSET 0.00 -0.1605 0.00
					CHANNELS 2 Zrotation Xrotation
					End Site
					{
						OFFSET 0.0040 -0.1068 -0.0006
					}
				}
			}
		}
	}
	JOINT RightHip
	{
		OFFSET 0.0316 -0.0424 0.0458
		CHANNELS 3 Zrotation Xrotation Yrotation
		JOINT RightKnee
		{
			OFFSET 0.00 -0.2438 0.00
			CHANNELS 1 Zrotation
			JOINT RightAnkle
			{
				OFFSET 0.00 -0.2449 0.00
				CHANNELS 3 Zrotation Xrotation Yrotation
				End Site
				{
					OFFSET 0.1237 -0.0542 0.0051
				}
			}
		}
	}
	JOINT LeftHip
	{
		OFFSET 0.0316 -0.0424 -0.0458
		CHANNELS 3 Zrotation Xrotation Yrotation
		JOINT LeftKnee
		{
			OFFSET 0.00 -0.2438 0.00
			CHANNELS 1 Zrotation
			JOINT LeftAnkle
			{
				OFFSET 0.00 -0.2449 0.00
				CHANNELS 3 Zrotation Xrotation Yrotation
				End Site
				{
					OFFSET 0.1237 -0.0542 -0.0051
				}
			}
		}
	}
}
MOTION
Frames: 28
Frame Time: 0.02
0.00096 0.00032 0.00037 -177.32538 -40.71821 -1.52258 48.08921 1.7257 -6.6965 7.3227 -1.96475 -0.41228 -22.66208 -55.55043 30.25244 86.69957 98.45043 37.25529 -1.69023 11.25094 12.17942 -11.39903 51.39219 -92.68521 7.63233 -0.08205 43.52258 -1.09817 -3.07044 -19.50501 -6.79607 -4.27547 -2.88662 47.41825 4.9759 6.97352 -24.9932 -6.78133 2.1546 1.71896
0.00104 0.00032 0.00057 -177.40906 -40.64112 -1.50791 48.09684 1.78652 -6.99545 6.88896 -2.04545 -0.41312 -24.7828 -55.02061 29.13544 86.98612 96.96661 34.98527 -1.83947 10.20999 12.52999 -11.48566 51.51653 -92.00197 7.10959 -0.05929 43.44616 -1.16005 -3.17762 -19.49852 -6.78897 -4.25287 -2.87483 47.32937 4.87911 6.69467 -24.99411 -6.78271 2.18868 1.74061
0.00113 0.00032 0.00077 -177.49276 -40.56425 -1.4932 48.10451 1.84728 -7.29408 6.45582 -2.12609 -0.41396 -26.89957 -54.49115 28.01972 87.27273 95.48733 32.72199 -1.98823 9.16951 12.87994 -11.5714 51.63995 -91.32099 6.58837 -0.03668 43.36998 -1.22187 -3.28449 -19.49201 -6.78188 -4.23031 -2.86305 47.24072 4.78245 6.4165 -24.99502 -6.7841 2.22272 1.76223
0.00122 0.00032 0.00097 -177.57621 -40.48739 -1.47856 48.11213 1.90792 -7.59221 6.02331 -2.20657 -0.4148 -29.01418 -53.96274 26.90578 87.55853 94.00808 30.45898 -2.13699 8.13135 13.22952 -11.65769 51.76383 -90.63995 6.06728 -0.014 43.29379 -1.28358 -3.39135 -19.48553 -6.7748 -4.20777 -2.85129 47.15211 4.68593 6.13844 -24.99593 -6.78548 2.25671 1.78382
0.0013 0.00032 0.00117 -177.65957 -40.41033 -1.46398 48.11967 1.96858 -7.89044 5.59042 -2.28703 -0.41564 -31.13175 -53.43449 25.79144 87.84396 92.52426 28.18916 -2.2863 7.09365 13.57949 -11.74506 51.88882 -89.9564 5.54456 0.00885 43.21736 -1.34528 -3.4985 -19.47906 -6.76772 -4.18523 -2.83953 47.06328 4.58936 5.85989 -24.99683 -6.78685 2.29071 1.80542
0.00139 0.00032 0.00138 -177.74399 -40.33385 -1.44901 48.12763 2.02956 -8.18987 5.15679 -2.36804 -0.41648 -33.2467 -52.90255 24.67295 88.13304 91.05458 25.93965 -2.43391 6.04736 13.92936 -11.82731 52.0089 -89.28074 5.02644 0.03095 43.14171 -1.40737 -3.6048 -19.4725 -6.76062 -4.16262 -2.82772 46.975 4.49255 5.5826 -24.99779 -6.78828 2.32483 1.82707
0.00148 0.00032 0.00158 -177.82612 -40.2563 -1.43484 48.13475 2.08979 -8.48655 4.72522 -2.44788 -0.4173 -35.36453 -52.37851 23.56388 88.41434 89.55824 23.65235 -2.58463 5.01977 14.27916 -11.91993 52.13881 -88.59051 4.50003 0.05456 43.06459 -1.4686 -3.71269 -19.46614 -6.75355 -4.14016 -2.81602 46.88574 4.39626 5.3028 -24.99862 -6.78959 2.35869 1.84862
0.00156 0.00032 0.00178 -177.91049 -40.1797 -1.41994 48.1426 2.15076 -8.78578 4.2916 -2.52875 -0.41816 -37.47982 -51.84741 22.4464 88.70306 88.08619 21.39879 -2.73275 3.97445 14.6288 -12.00271 52.25951 -87.9127 3.98056 0.07674 42.9888 -1.53063 -3.81912 -19.45957 -6.74646 -4.11755 -2.80421 46.79733 4.29961 5.02583 -24.99956 -6.79101 2.39274 1.87023
0.00165 0.00032 0.00198 -177.99717 -40.10438 -1.40407 48.15157 2.21252 -9.0883 3.85573 -2.61112 -0.419 -39.59293 -51.30633 21.3167 89.00013 86.6444 19.18988 -2.87668 2.90847 14.97936 -12.07447 52.36949 -87.25385 3.47214 0.09732 42.91467 -1.59364 -3.92377 -19.4528 -6.73934 -4.09478 -2.7923 46.71011 4.20201 4.75011 -25.00067 -6.79257 2.42728 1.89204
0.00173 0.00032 0.00218 -178.06925 -40.02205 -1.39357 48.15476 2.2694 -9.37246 3.43355 -2.68562 -0.41976 -41.72145 -50.81855 20.25138 89.24702 85.03017 16.73424 -3.04168 1.96431 15.328 -12.21267 52.54274 -86.49724 2.90784 0.12756 42.8311 -1.65104 -4.03868 -19.44734 -6.73235 -4.07302 -2.78107 46.6165 4.10832 4.46055 -25.00091 -6.79333 2.45978 1.9131
0.00183 0.00032 0.00239 -178.17295 -39.95431 -1.37189 48.16969 2.33677 -9.69487 2.98216 -2.7762 -0.42082 -43.81518 -50.22112 19.05436 89.60103 83.77878 14.79285 -3.16418 0.76163 15.67848 -12.20882 52.58152 -85.93971 2.45657 0.13713 42.76737 -1.72027 -4.13195 -19.43904 -6.72511 -4.0491 -2.76836 46.5361 4.00737 4.20448 -25.00294 -6.79577 2.49605 1.93546
0.00195 0.00032 0.00268 -178.35786 -39.92857 -1.31813 48.22103 2.43173 -10.12738 2.452 -2.91529 -0.42155 -45.83105 -49.29611 17.45947 90.24065 83.54077 14.32748 -3.15294 -1.14618 16.05188 -11.82629 52.25607 -85.98763 2.35694 0.09064 42.75945 -1.82239 -4.16509 -19.42358 -6.71704 -4.01947 -2.75188 46.49462 3.87794 4.00449 -25.0101 -6.80284 2.54739 1.96389
0.00207 0.00032 0.003 -178.57562 -39.91712 -1.25347 48.28337 2.53741 -10.59708 1.89222 -3.06946 -0.42278 -47.80756 -48.26574 15.74061 90.98839 83.66388 14.36631 -3.1023 -3.31408 16.42346 -11.29891 51.7951 -86.22109 2.3623 0.02264 42.77123 -1.93625 -4.17659 -19.40517 -6.70875 -3.98762 -2.73385 46.46593 3.74267 3.84389 -25.01899 -6.81158 2.60177 1.99323
0.0022 0.00032 0.0033 -178.78193 -39.89788 -1.19468 48.33793 2.63904 -11.04682 1.34511 -3.21417 -0.42454 -49.7922 -47.30122 14.10028 91.69336 83.61008 14.1322 -3.08076 -5.36624 16.78467 -10.83074 51.39245 -86.33534 2.29352 -0.03519 42.77309 -2.04457 -4.19851 -19.38766 -6.70068 -3.95667 -2.71635 46.42963 3.61583 3.68974 -25.02693 -6.81952 2.65154 2.02043
0.00231 0.00031 0.0036 -178.97341 -39.88418 -1.13182 48.40427 2.73743 -11.51074 0.80139 -3.37093 -0.42316 -51.823 -46.26137 12.35965 92.37576 83.61075 14.08459 -3.01148 -7.40997 17.19466 -10.39082 51.00157 -86.61121 2.33978 -0.09222 42.77898 -2.1541 -4.21808 -19.37189 -6.69212 -3.92625 -2.69962 46.40086 3.46515 3.4364 -25.03558 -6.82764 2.71447 2.05464
0.00246 0.00032 0.00391 -179.20383 -39.8623 -1.07509 48.44868 2.84487 -11.95245 0.24346 -3.50491 -0.42836 -53.742 -45.35253 10.80652 93.12566 83.58393 13.76735 -3.03278 -9.5311 17.50071 -9.85696 50.55626 -86.57693 2.16722 -0.15917 42.78127 -2.26353 -4.23724 -19.35193 -6.6845 -3.89412 -2.6809 46.35954 3.36205 3.39457 -25.04317 -6.83577 2.75128 2.0748
0.00269 0.00039 0.00428 -179.5312 -39.81469 -1.03603 48.42974 2.97645 -12.33639 -0.34544 -3.58267 -0.45215 -55.41499 -44.83853 9.73253 94.07905 83.38863 12.58907 -3.30877 -11.81621 17.53703 -9.10821 49.97616 -85.80212 1.40316 -0.21895 42.76777 -2.37288 -4.2621 -19.31996 -6.67977 -3.85861 -2.65712 46.27988 3.39763 3.96443 -25.04734 -6.84378 2.71025 2.0531
0.00296 0.00048 0.00467 -179.89687 -39.75833 -1.00389 48.38844 3.11635 -12.69445 -0.94798 -3.63496 -0.48243 -56.96625 -44.45801 8.86344 95.08836 83.154 11.12272 -3.67749 -14.16708 17.46616 -8.26961 49.34983 -84.68737 0.41082 -0.29187 42.75019 -2.48111 -4.28698 -19.28413 -6.67594 -3.82135 -2.6314 46.18734 3.48014 4.73839 -25.05041 -6.85172 2.64377 2.01776
0.00321 0.00056 0.00504 -180.24699 -39.7057 -0.96985 48.3573 3.25141 -13.05586 -1.54469 -3.69219 -0.50935 -58.53928 -44.0125 7.94708 96.04357 82.93987 9.78087 -4.00803 -16.47921 17.43266 -7.46459 48.7556 -83.61125 -0.50578 -0.37998 42.73513 -2.58791 -4.31095 -19.25081 -6.67151 -3.7843 -2.60649 46.10096 3.53741 5.39497 -25.05402 -6.85953 2.59215 1.99047
0.00346 0.00065 0.00544 -180.59139 -39.65445 -0.93016 48.32617 3.3917 -13.45352 -2.14009 -3.77827 -0.53802 -60.25534 -43.5844 6.83691 97.12405 82.72673 8.47497 -4.32349 -18.83971 17.44491 -6.6797 48.1076 -82.99468 -1.31187 -0.38593 42.71788 -2.7035 -4.33821 -19.21409 -6.66786 -3.74946 -2.58174 46.01338 3.61125 6.15864 -25.0575 -6.86805 2.52661 1.9553
0.00372 0.00073 0.00578 -180.95513 -39.59829 -0.90406 48.29004 3.52245 -13.76976 -2.74206 -3.79762 -0.56456 -61.64166 -43.1496 6.17557 97.95502 82.49815 7.03021 -4.6891 -21.10932 17.33905 -5.84025 47.56515 -81.38302 -2.38941 -0.55777 42.70407 -2.80014 -4.35862 -19.18368 -6.66284 -3.70988 -2.55632 45.92554 3.66145 6.74503 -25.06098 -6.87508 2.48413 1.93342
0.00402 0.00078 0.0059 -181.37342 -39.52871 -0.91345 48.24154 3.6289 -13.86106 -3.3499 -3.64213 -0.58389 -62.17539 -42.6956 6.74945 98.08581 82.23009 5.17415 -5.20337 -23.1299 16.90965 -4.81277 47.30316 -76.70988 -4.28622 -1.25518 42.69963 -2.84664 -4.36317 -19.1708 -6.6535 -3.65558 -2.52849 45.83624 3.63807 6.811 -25.06449 -6.87766 2.51033 1.95054
0.00434 0.00082 0.00595 -181.80771 -39.45482 -0.9364 48.18946 3.72469 -13.8723 -3.96514 -3.41969 -0.60078 -62.37579 -42.22589 7.76061 97.96206 81.94794 3.20307 -5.75898 -25.05159 16.36881 -3.7441 47.1542 -71.11483 -6.42691 -2.10681 42.69894 -2.87374 -4.36072 -19.16457 -6.64281 -3.59694 -2.50022 45.74782 3.58886 6.68836 -25.06809 -6.87879 2.5608 1.98166
0.00465 0.00086 0.00604 -182.2276 -39.38409 -0.95339 48.14167 3.82256 -13.92428 -4.58303 -3.22574 -0.61863 -62.71138 -41.74159 8.54124 97.95329 81.6738 1.34787 -6.2743 -27.00597 15.89539 -2.73552 46.96836 -66.20797 -8.3722 -2.84006 42.69716 -2.90831 -4.35911 -19.15588 -6.63298 -3.54171 -2.47287 45.66146 3.54926 6.63858 -25.0718 -6.88081 2.60096 2.0071
0.00496 0.0009 0.00613 -182.67896 -39.30785 -0.96972 48.082 3.93223 -13.95711 -5.1771 -3.03911 -0.63738 -63.11413 -41.3492 9.46063 97.95149 81.38889 -0.78139 -6.88358 -29.01639 15.35029 -1.55402 46.7182 -60.17474 -10.67622 -3.77346 42.69257 -2.94831 -4.36591 -19.14475 -6.62218 -3.48052 -2.44253 45.56418 3.51971 6.64769 -25.07479 -6.88184 2.63727 2.02935
0.00528 0.00095 0.00619 -183.06804 -39.24236 -0.99059 48.04636 4.0149 -14.01099 -5.82102 -2.82163 -0.65354 -63.29611 -40.76544 10.19545 97.87147 81.1271 -2.3687 -7.30579 -30.88338 14.92583 -0.71786 46.6313 -56.24546 -12.29582 -4.33169 42.69488 -2.9727 -4.35535 -19.14026 -6.61303 -3.43051 -2.4182 45.49016 3.46318 6.48985 -25.07935 -6.88458 2.6876 2.06156
0.00562 0.00098 0.00619 -183.28111 -39.2062 -1.02038 48.07935 4.02378 -14.14382 -6.61178 -2.5359 -0.66345 -62.97915 -39.60908 10.28476 97.65838 80.90936 -2.38927 -7.20283 -32.39645 14.8924 -0.89894 46.95209 -58.5881 -11.89855 -3.77103 42.71437 -2.9559 -4.28236 -19.15311 -6.60897 -3.41443 -2.41171 45.47906 3.3321 5.88871 -25.08801 -6.89238 2.7716 2.11952
0.00596 0.00101 0.00617 -183.43071 -39.1813 -1.05429 48.13647 4.00631 -14.30036 -7.45004 -2.22155 -0.67076 -62.4471 -38.26886 10.17748 97.37103 80.72522 -1.86962 -6.91096 -33.76417 14.97866 -1.41893 47.43614 -63.03546 -10.81622 -2.83614 42.74085 -2.92449 -4.1946 -19.17233 -6.60658 -3.40947 -2.41113 45.49159 3.17568 5.13031 -25.09828 -6.90192 2.86879 2.18678
